HIERARCHY
ROOT Hips
{
	OFFSET 0.000000 83.214638 0.000000
	CHANNELS 6 Xposition Yposition Zposition Xrotation Yrotation Zrotation
	JOINT Pelvis
	{
		OFFSET 0.000000 0.000000 0.000000
		CHANNELS 3 Xrotation Yrotation Zrotation
		JOINT LeftUpLeg
		{
			OFFSET 8.479700 -4.795502 -0.379100
			CHANNELS 3 Xrotation Yrotation Zrotation
			JOINT LeftLeg
			{
				OFFSET 0.024144 -32.555107 0.112900
				CHANNELS 3 Xrotation Yrotation Zrotation
				JOINT LeftFoot
				{
					OFFSET -0.024144 -32.638630 -3.012600
					CHANNELS 3 Xrotation Yrotation Zrotation
					JOINT LeftToeBase
					{
						OFFSET 0.970200 -13.225400 11.864200
						CHANNELS 3 Xrotation Yrotation Zrotation
						End Site
						{
							OFFSET 0.000000 12.319262 0.000000
						}
					}
					JOINT LFootTongue
					{
						OFFSET 1.142400 -1.059800 6.665200
						CHANNELS 3 Xrotation Yrotation Zrotation
						End Site
						{
							OFFSET 0.000000 12.319262 0.000000
						}
					}
				}
				JOINT LeftPantLeg
				{
					OFFSET 0.918482 -16.533964 -2.284700
					CHANNELS 3 Xrotation Yrotation Zrotation
					End Site
					{
						OFFSET 0.350399 24.744368 0.000000
					}
				}
			}
		}
		JOINT RightUpLeg
		{
			OFFSET -8.479700 -4.795502 -0.379100
			CHANNELS 3 Xrotation Yrotation Zrotation
			JOINT RightLeg
			{
				OFFSET -0.023144 -32.555092 0.112900
				CHANNELS 3 Xrotation Yrotation Zrotation
				JOINT RightFoot
				{
					OFFSET 0.023144 -32.638641 -3.012700
					CHANNELS 3 Xrotation Yrotation Zrotation
					JOINT RightToeBase
					{
						OFFSET -0.970200 -13.225400 11.864200
						CHANNELS 3 Xrotation Yrotation Zrotation
						End Site
						{
							OFFSET 0.000000 12.319244 0.000000
						}
					}
					JOINT RFootTongue
					{
						OFFSET -1.142200 -1.059800 6.665200
						CHANNELS 3 Xrotation Yrotation Zrotation
						End Site
						{
							OFFSET 0.000000 12.319243 0.000000
						}
					}
				}
				JOINT RightPantLeg
				{
					OFFSET -0.919482 -16.533978 -2.284800
					CHANNELS 3 Xrotation Yrotation Zrotation
					End Site
					{
						OFFSET -0.350400 24.744419 0.000000
					}
				}
			}
		}
	}
	JOINT Spine
	{
		OFFSET 0.000000 7.722000 1.166200
		CHANNELS 3 Xrotation Yrotation Zrotation
		JOINT Spine1
		{
			OFFSET 0.000000 12.024101 0.248800
			CHANNELS 3 Xrotation Yrotation Zrotation
			JOINT Spine2
			{
				OFFSET 0.000000 11.502998 -0.491200
				CHANNELS 3 Xrotation Yrotation Zrotation
				JOINT Neck
				{
					OFFSET 0.000000 18.430702 -3.123100
					CHANNELS 3 Xrotation Yrotation Zrotation
					JOINT Head
					{
						OFFSET 0.000000 9.051102 1.034000
						CHANNELS 3 Xrotation Yrotation Zrotation
						JOINT HairB
						{
							OFFSET 0.208400 24.786102 24.822300
							CHANNELS 3 Xrotation Yrotation Zrotation
							End Site
							{
								OFFSET 0.000000 32.263779 0.000000
							}
						}
						JOINT HairA
						{
							OFFSET -7.081100 24.428299 23.196600
							CHANNELS 3 Xrotation Yrotation Zrotation
							End Site
							{
								OFFSET 0.000000 32.263779 0.000000
							}
						}
						JOINT Hat
						{
							OFFSET 16.728800 15.048294 -15.439601
							CHANNELS 3 Xrotation Yrotation Zrotation
							End Site
							{
								OFFSET 0.000000 32.263779 0.000000
							}
						}
					}
				}
				JOINT LeftShoulder
				{
					OFFSET 6.197800 13.665199 -4.064700
					CHANNELS 3 Xrotation Yrotation Zrotation
					JOINT LeftArm
					{
						OFFSET 7.778100 -0.187103 -1.709300
						CHANNELS 3 Xrotation Yrotation Zrotation
						JOINT LeftForeArm
						{
							OFFSET 22.049376 0.000000 0.000000
							CHANNELS 3 Xrotation Yrotation Zrotation
							JOINT LeftHand
							{
								OFFSET 23.009392 0.000000 0.000000
								CHANNELS 3 Xrotation Yrotation Zrotation
								JOINT LeftHandThumb1
								{
									OFFSET 3.507191 -2.063065 3.133727
									CHANNELS 3 Xrotation Yrotation Zrotation
									JOINT LeftHandThumb2
									{
										OFFSET 3.101337 -1.790558 1.790558
										CHANNELS 3 Xrotation Yrotation Zrotation
										JOINT LeftHandThumb3
										{
											OFFSET 3.058640 -1.765907 1.765906
											CHANNELS 3 Xrotation Yrotation Zrotation
											End Site
											{
												OFFSET -0.415260 3.926476 -0.049563
											}
										}
									}
								}
								JOINT LeftHandIndex1
								{
									OFFSET 11.334419 -0.901459 3.706815
									CHANNELS 3 Xrotation Yrotation Zrotation
									JOINT LeftHandIndex2
									{
										OFFSET 3.283112 0.000000 0.000000
										CHANNELS 3 Xrotation Yrotation Zrotation
										JOINT LeftHandIndex3
										{
											OFFSET 3.323853 0.000000 0.000000
											CHANNELS 3 Xrotation Yrotation Zrotation
											End Site
											{
												OFFSET -1.135597 3.097809 0.402452
											}
										}
									}
								}
								JOINT LeftHandMiddle1
								{
									OFFSET 11.335861 0.000000 0.000000
									CHANNELS 3 Xrotation Yrotation Zrotation
									JOINT LeftHandMiddle2
									{
										OFFSET 3.410492 0.000000 0.000000
										CHANNELS 3 Xrotation Yrotation Zrotation
										JOINT LeftHandMiddle3
										{
											OFFSET 3.312172 0.000000 0.000000
											CHANNELS 3 Xrotation Yrotation Zrotation
											End Site
											{
												OFFSET -1.150200 3.080154 0.400270
											}
										}
									}
								}
								JOINT LeftHandRing1
								{
									OFFSET 11.514786 -0.013176 -3.003090
									CHANNELS 3 Xrotation Yrotation Zrotation
									JOINT LeftHandRing2
									{
										OFFSET 3.053307 0.000000 0.000000
										CHANNELS 3 Xrotation Yrotation Zrotation
										JOINT LeftHandRing3
										{
											OFFSET 3.295807 0.000000 0.000000
											CHANNELS 3 Xrotation Yrotation Zrotation
											End Site
											{
												OFFSET -1.281006 3.013344 0.375733
											}
										}
									}
								}
								JOINT LeftHandPinky1
								{
									OFFSET 10.518692 -0.960396 -5.730441
									CHANNELS 3 Xrotation Yrotation Zrotation
									JOINT LeftHandPinky2
									{
										OFFSET 2.861649 0.000000 0.000000
										CHANNELS 3 Xrotation Yrotation Zrotation
										JOINT LeftHandPinky3
										{
											OFFSET 2.863380 0.000000 0.000000
											CHANNELS 3 Xrotation Yrotation Zrotation
											End Site
											{
												OFFSET -0.843597 2.711159 0.369971
											}
										}
									}
								}
							}
							JOINT LSleeve
							{
								OFFSET 6.676277 -0.344902 -1.011730
								CHANNELS 3 Xrotation Yrotation Zrotation
								End Site
								{
									OFFSET 0.000000 14.885353 0.000000
								}
							}
						}
					}
				}
				JOINT RightShoulder
				{
					OFFSET -6.197800 13.665199 -4.064700
					CHANNELS 3 Xrotation Yrotation Zrotation
					JOINT RightArm
					{
						OFFSET -7.778100 -0.187103 -1.709300
						CHANNELS 3 Xrotation Yrotation Zrotation
						JOINT RightForeArm
						{
							OFFSET -22.049376 0.000000 0.000000
							CHANNELS 3 Xrotation Yrotation Zrotation
							JOINT RightHand
							{
								OFFSET -23.009392 0.000000 0.000000
								CHANNELS 3 Xrotation Yrotation Zrotation
								JOINT RightHandThumb1
								{
									OFFSET -3.507191 -2.063065 3.133727
									CHANNELS 3 Xrotation Yrotation Zrotation
									JOINT RightHandThumb2
									{
										OFFSET -3.101337 -1.790558 1.790558
										CHANNELS 3 Xrotation Yrotation Zrotation
										JOINT RightHandThumb3
										{
											OFFSET -3.058640 -1.765907 1.765906
											CHANNELS 3 Xrotation Yrotation Zrotation
											End Site
											{
												OFFSET 0.415260 3.926476 -0.049563
											}
										}
									}
								}
								JOINT RightHandIndex1
								{
									OFFSET -11.334419 -0.901459 3.706815
									CHANNELS 3 Xrotation Yrotation Zrotation
									JOINT RightHandIndex2
									{
										OFFSET -3.283112 0.000000 0.000000
										CHANNELS 3 Xrotation Yrotation Zrotation
										JOINT RightHandIndex3
										{
											OFFSET -3.323853 0.000000 0.000000
											CHANNELS 3 Xrotation Yrotation Zrotation
											End Site
											{
												OFFSET 1.135597 3.097809 0.402452
											}
										}
									}
								}
								JOINT RightHandMiddle1
								{
									OFFSET -11.335861 0.000000 0.000000
									CHANNELS 3 Xrotation Yrotation Zrotation
									JOINT RightHandMiddle2
									{
										OFFSET -3.410492 0.000000 0.000000
										CHANNELS 3 Xrotation Yrotation Zrotation
										JOINT RightHandMiddle3
										{
											OFFSET -3.312172 0.000000 0.000000
											CHANNELS 3 Xrotation Yrotation Zrotation
											End Site
											{
												OFFSET 1.150200 3.080154 0.400270
											}
										}
									}
								}
								JOINT RightHandRing1
								{
									OFFSET -11.514786 -0.013176 -3.003090
									CHANNELS 3 Xrotation Yrotation Zrotation
									JOINT RightHandRing2
									{
										OFFSET -3.053307 0.000000 0.000000
										CHANNELS 3 Xrotation Yrotation Zrotation
										JOINT RightHandRing3
										{
											OFFSET -3.295807 0.000000 0.000000
											CHANNELS 3 Xrotation Yrotation Zrotation
											End Site
											{
												OFFSET 1.281006 3.013344 0.375733
											}
										}
									}
								}
								JOINT RightHandPinky1
								{
									OFFSET -10.518692 -0.960396 -5.730441
									CHANNELS 3 Xrotation Yrotation Zrotation
									JOINT RightHandPinky2
									{
										OFFSET -2.861649 0.000000 0.000000
										CHANNELS 3 Xrotation Yrotation Zrotation
										JOINT RightHandPinky3
										{
											OFFSET -2.863380 0.000000 0.000000
											CHANNELS 3 Xrotation Yrotation Zrotation
											End Site
											{
												OFFSET 0.843597 2.711159 0.369971
											}
										}
									}
								}
							}
							JOINT RSleeve
							{
								OFFSET -6.676277 -0.344902 -1.011730
								CHANNELS 3 Xrotation Yrotation Zrotation
								End Site
								{
									OFFSET 0.000000 14.885353 0.000000
								}
							}
						}
					}
				}
				JOINT Backpack
				{
					OFFSET 0.000000 -2.471497 36.677502
					CHANNELS 3 Xrotation Yrotation Zrotation
					End Site
					{
						OFFSET 0.000000 20.427315 0.000000
					}
				}
				JOINT Hood
				{
					OFFSET 0.000000 18.754097 -10.431000
					CHANNELS 3 Xrotation Yrotation Zrotation
					JOINT Hood1
					{
						OFFSET 0.000000 -5.011002 -7.685901
						CHANNELS 3 Xrotation Yrotation Zrotation
						End Site
						{
							OFFSET 0.000000 9.175140 0.000000
						}
					}
				}
				JOINT LHoodieString
				{
					OFFSET 5.250500 16.397697 3.089900
					CHANNELS 3 Xrotation Yrotation Zrotation
					JOINT LHoodieString1
					{
						OFFSET 0.257700 -6.364304 3.694600
						CHANNELS 3 Xrotation Yrotation Zrotation
						JOINT LHoodieString2
						{
							OFFSET 0.000000 -9.643799 2.679100
							CHANNELS 3 Xrotation Yrotation Zrotation
							End Site
							{
								OFFSET 0.000000 10.009018 0.000000
							}
						}
					}
				}
				JOINT RHoodieString
				{
					OFFSET -5.250500 16.397697 3.089900
					CHANNELS 3 Xrotation Yrotation Zrotation
					JOINT RHoodieString1
					{
						OFFSET -0.257700 -6.364304 3.694600
						CHANNELS 3 Xrotation Yrotation Zrotation
						JOINT RHoodieString2
						{
							OFFSET 0.000000 -9.643799 2.679100
							CHANNELS 3 Xrotation Yrotation Zrotation
							End Site
							{
								OFFSET 0.000000 10.009018 0.000000
							}
						}
					}
				}
			}
			JOINT LBackpack_Strap
			{
				OFFSET 15.223200 -7.719803 -6.610900
				CHANNELS 3 Xrotation Yrotation Zrotation
				End Site
				{
					OFFSET 0.000000 16.040596 0.000000
				}
			}
			JOINT RBackpack_Strap
			{
				OFFSET -15.223000 -7.719803 -6.610900
				CHANNELS 3 Xrotation Yrotation Zrotation
				End Site
				{
					OFFSET 0.000000 16.040596 0.000000
				}
			}
		}
	}
	JOINT BoyFacialAnim_Joint
	{
		OFFSET 1.000000 -82.208099 -1.550900
		CHANNELS 3 Xrotation Yrotation Zrotation
		End Site
		{
			OFFSET 0.000000 30.012791 0.000000
		}
	}
}
MOTION
Frames: 4
Frame Time: 0.033333
130.589783 65.740150 11.673722 85.344450 -66.026264 -264.892057 0.000001 0.000000 0.000001 -45.457156 8.868372 21.670064 88.095295 29.072710 -0.592038 10.796922 -0.541909 -10.152792 -0.000002 0.000001 -0.000001 -0.000002 0.000001 -0.000001 -0.000000 0.000001 0.000002 -81.164559 -4.493935 -16.582193 90.444402 -55.759807 12.969233 -22.536991 -2.899277 11.296648 -0.000000 -0.000000 -0.000000 -0.000000 -0.000000 -0.000000 0.000001 -0.000000 0.000002 3.482945 -1.137322 1.819115 6.977673 -2.121255 2.883992 6.977664 -2.121233 2.883980 -1.885169 -11.791778 -0.184431 5.935000 -38.580969 23.277315 -0.000000 0.000000 0.000000 -0.000000 0.000000 0.000000 -0.000000 0.000000 0.000000 4.642137 -19.367520 -16.336578 -17.186841 -7.701393 -40.352266 21.908148 -34.620306 0.128201 19.686897 -15.732453 16.864651 -4.931963 -4.861360 -10.509449 10.892846 20.890738 0.959043 -0.000000 -0.000000 -0.000001 -0.053849 -8.796870 -57.838718 -1.200422 -0.400210 -55.945396 -0.000000 -0.000003 0.000001 -2.654026 -4.153395 -64.010655 -2.773780 -3.263186 -50.903484 -0.000000 0.000001 0.000004 -4.484277 7.071665 -80.761188 -2.271206 -4.819902 -67.739870 -0.000000 -0.000000 -0.000002 -5.230465 11.507553 -79.749432 -3.280501 -8.350535 -67.977007 -0.000000 0.000000 -0.000000 0.000000 -0.000001 0.000001 6.022223 1.232810 8.128123 -1.494947 -6.967803 59.176383 10.664291 31.517406 -0.628398 13.604796 11.636902 -14.882796 20.629033 9.056550 0.159546 1.326608 -14.501417 -4.963679 0.000002 0.000002 0.000001 -0.276595 4.273854 36.813927 -1.182368 -0.307925 65.864546 0.000000 0.000002 0.000000 -1.067276 1.820925 36.487953 -3.076926 2.847886 63.639864 0.000001 0.000001 -0.000000 -1.942803 -7.134212 39.603838 -3.044530 5.947611 65.442419 0.000001 0.000001 0.000004 -0.943248 -12.147096 44.178258 -5.936403 11.483859 75.286552 0.000001 -0.000001 0.000002 0.000000 -0.000001 0.000000 -0.000001 -0.000001 -0.000000 -0.000001 -0.000001 -0.000000 -0.000001 -0.000001 -0.000000 -0.000001 -0.000001 -0.000000 -0.000001 -0.000001 -0.000000 -0.000001 0.000000 -0.000000 -0.000001 -0.000001 -0.000000 -0.000001 -0.000001 -0.000000 -0.000001 0.000000 -0.000000 -0.000001 0.000000 -0.000000 -0.000001 0.000000 -0.000000 0.000001 0.000000 0.000001 
135.367432 65.332108 9.576694 57.706916 -62.472633 -294.075079 -0.000001 0.000001 -0.000000 -42.918474 8.699727 24.141415 85.185211 32.785331 0.104981 9.067453 -0.482711 -13.099935 0.000002 0.000002 0.000004 0.000002 0.000002 0.000004 -0.000000 -0.000002 0.000002 -84.352775 -4.088290 -21.045713 95.605341 -61.613354 19.585832 -19.882059 -2.224773 9.625821 0.000000 0.000000 -0.000000 0.000000 0.000000 -0.000000 0.000001 -0.000000 -0.000001 3.148787 -1.507648 1.815383 6.326364 -2.639861 3.278975 6.326367 -2.639871 3.278986 -1.316633 -13.107506 1.003562 8.063917 -41.971284 26.979128 -0.000000 0.000000 0.000000 -0.000000 0.000000 0.000000 -0.000000 0.000000 0.000000 4.565414 -18.657988 -16.186162 -17.764612 -10.191897 -37.436670 23.859541 -33.188391 -0.872482 19.069219 -15.534200 13.547121 -5.390244 -5.824816 -6.345829 9.829772 19.246766 1.093265 0.000001 -0.000001 0.000002 -0.241052 -8.666350 -48.078081 -1.267027 -0.434335 -50.860331 -0.000002 0.000001 -0.000002 -2.000998 -3.679008 -53.642438 -2.490206 -3.013840 -46.166680 0.000002 -0.000002 0.000003 -3.722071 7.197460 -71.434053 -1.868845 -4.634531 -62.519727 -0.000000 -0.000002 -0.000003 -4.132663 11.646290 -70.170338 -2.725650 -8.105675 -62.645150 -0.000000 -0.000002 -0.000000 -0.000002 0.000000 0.000001 4.920622 4.086699 9.157677 -1.491638 -9.419246 60.406521 7.587965 24.484944 -0.273332 13.386104 15.675759 -13.056639 21.180164 8.411369 -0.072051 1.269852 -14.579107 -5.127468 0.000001 0.000001 -0.000001 -0.213232 4.323908 32.889027 -1.244081 -0.270777 63.774173 -0.000000 0.000003 0.000004 -0.841518 1.554090 32.587898 -2.865739 2.733098 59.835736 0.000002 -0.000001 0.000001 -1.866015 -7.369061 37.723572 -2.940930 5.901611 64.452752 0.000001 0.000001 0.000001 -0.820633 -12.072888 42.342870 -5.729496 11.428489 74.003495 0.000001 -0.000001 0.000000 0.000002 0.000000 -0.000001 0.000001 0.000000 -0.000000 0.000001 0.000000 -0.000000 0.000001 0.000000 -0.000000 0.000001 0.000000 -0.000000 0.000001 0.000000 -0.000000 0.000001 -0.000000 -0.000001 0.000001 0.000000 -0.000000 0.000001 0.000000 -0.000000 0.000001 -0.000000 -0.000001 -0.000001 0.000000 -0.000000 -0.000001 0.000000 -0.000000 -0.000001 0.000001 -0.000000 
139.881866 64.758293 7.754095 40.477320 -55.438566 -312.822090 0.000001 0.000000 0.000001 -40.708453 8.025782 26.216385 79.678624 33.163956 0.724106 9.224258 -0.646625 -18.411202 -0.000001 -0.000001 -0.000000 -0.000001 -0.000001 0.000000 -0.000001 -0.000000 -0.000001 -86.749188 -2.081780 -25.127238 97.211965 -63.822490 22.186338 -16.347412 -1.349256 6.827400 -0.000000 0.000001 -0.000000 -0.000000 0.000001 -0.000000 -0.000000 -0.000000 -0.000000 3.095000 -1.701998 1.804069 6.233246 -2.823855 3.582309 6.233249 -2.823836 3.582297 -0.789604 -14.099425 1.401125 9.962891 -44.871433 30.356154 0.000001 0.000002 -0.000001 0.000001 0.000002 -0.000001 0.000001 0.000002 -0.000001 4.759527 -17.849967 -16.000825 -18.486718 -12.557044 -34.159436 24.053102 -33.592957 -2.135064 16.800390 -16.233748 11.243734 -5.700492 -7.181987 -1.704845 8.663889 17.351471 1.216797 0.000003 -0.000001 0.000002 -0.408814 -8.530922 -38.304606 -1.320345 -0.467614 -45.727341 -0.000003 0.000000 -0.000005 -1.431142 -3.071517 -43.238697 -2.222955 -2.741621 -41.421071 -0.000001 -0.000001 -0.000002 -2.924462 7.426898 -61.020678 -1.454999 -4.390786 -56.830411 0.000002 -0.000004 -0.000006 -2.989551 11.957555 -59.472165 -2.156596 -7.780416 -56.899611 0.000001 -0.000003 -0.000001 0.000000 0.000001 0.000001 3.836630 6.462857 10.134659 -0.748325 -11.528698 61.599086 5.926291 21.552320 -0.109747 12.858036 18.092162 -10.967754 21.619675 7.723488 -0.352283 1.252859 -14.756613 -5.303941 -0.000002 0.000001 -0.000000 -0.191640 4.448586 26.503198 -1.374663 -0.196248 59.179389 -0.000000 -0.000001 0.000002 -0.555208 1.127608 26.185478 -2.528716 2.515129 53.503768 0.000000 -0.000002 -0.000001 -1.719996 -7.684992 34.746948 -2.731173 5.797607 62.330735 -0.000000 0.000003 0.000003 -0.568032 -12.142332 39.461654 -5.339249 11.307359 71.566886 -0.000000 -0.000001 0.000000 0.000000 -0.000001 -0.000000 -0.000000 -0.000001 -0.000001 -0.000000 -0.000001 -0.000001 -0.000000 -0.000001 -0.000001 -0.000000 -0.000001 -0.000001 -0.000000 -0.000001 -0.000000 -0.000000 -0.000001 -0.000000 -0.000000 -0.000001 -0.000001 -0.000000 -0.000001 -0.000000 -0.000000 -0.000001 -0.000000 0.000003 -0.000001 -0.000001 0.000003 -0.000001 -0.000001 0.000001 0.000000 0.000001 
144.242874 63.602631 6.307474 30.626626 -47.504778 -324.254925 -0.000000 -0.000002 -0.000000 -39.249580 7.878536 27.551651 72.781751 29.662528 0.318582 12.229344 -1.276577 -22.983269 -0.000000 0.000000 -0.000001 -0.000000 0.000000 -0.000001 0.000002 0.000000 0.000001 -88.291875 1.725326 -28.337010 91.666739 -56.190761 15.220672 -11.960830 -0.804876 5.303959 0.000000 0.000002 -0.000000 0.000000 0.000002 -0.000000 -0.000001 -0.000003 -0.000001 3.119240 -1.711460 1.813850 6.285849 -2.700468 3.751065 6.285844 -2.700454 3.751055 0.076814 -15.016816 1.989852 11.234669 -46.694458 32.686468 -0.000000 0.000000 0.000001 -0.000000 0.000000 0.000001 -0.000000 0.000000 0.000001 4.584640 -16.872985 -15.895462 -19.557521 -15.224171 -31.751808 24.105797 -32.199667 -3.741492 15.313023 -17.362559 9.621714 -5.764097 -8.863601 3.087462 7.463309 15.322153 1.311522 0.000001 -0.000001 0.000004 -0.547283 -8.376628 -29.200206 -1.355322 -0.495798 -40.861429 -0.000003 0.000002 0.000000 -0.997106 -2.395149 -33.495671 -1.989180 -2.469011 -36.983084 0.000001 0.000000 0.000007 -2.185034 7.752113 -50.199018 -1.063153 -4.099502 -51.023514 -0.000003 0.000002 -0.000002 -1.936676 12.430652 -48.331177 -1.618800 -7.390919 -51.098476 0.000001 0.000001 -0.000000 -0.000001 -0.000001 0.000000 3.285175 8.184628 10.933336 2.116120 -13.446989 62.389755 7.027573 26.020895 -0.261009 11.920718 18.066293 -7.733642 22.124796 6.679870 -0.696349 1.362632 -15.239655 -5.489880 0.000001 -0.000001 0.000001 -0.170645 4.637154 18.838275 -1.527850 -0.088783 53.173904 -0.000002 -0.000000 0.000003 -0.279967 0.597585 18.486283 -2.152588 2.207354 45.868286 0.000002 -0.000000 -0.000004 -1.431928 -8.223483 29.081282 -2.280041 5.536526 57.528716 -0.000002 -0.000003 0.000002 -0.050485 -12.505596 33.930088 -4.524148 10.995209 66.396132 -0.000000 -0.000003 -0.000002 0.000002 -0.000002 0.000001 0.000004 0.000003 -0.000000 0.000004 0.000003 -0.000000 0.000004 0.000003 -0.000000 0.000004 0.000003 -0.000000 0.000004 0.000003 -0.000001 -0.000002 0.000001 0.000001 0.000004 0.000003 -0.000000 0.000004 0.000003 -0.000001 -0.000002 0.000001 0.000001 0.000003 0.000000 -0.000000 0.000003 0.000000 -0.000000 -0.000000 -0.000002 -0.000000 
